<svg xmlns="http://www.w3.org/2000/svg" xmlns:xlink="http://www.w3.org/1999/xlink" version="1.1" x="0px" y="0px" viewBox="0 0 24 30" style="enable-background:new 0 0 24 24;" xml:space="preserve"><g><path d="M5.361,22.104c0,0.273,0.221,0.494,0.494,0.494h12.288c0.273,0,0.494-0.221,0.494-0.494V6.28   c0-0.273-0.221-0.494-0.494-0.494H5.856c-0.273,0-0.494,0.221-0.494,0.494V22.104z M6.35,6.774H17.65V21.61H6.35V6.774z"/><path d="M5.856,4.813h12.076c0.273,0,0.494-0.221,0.494-0.494s-0.221-0.494-0.494-0.494h-3.471C14.439,2.485,13.344,1.402,12,1.402   c-1.344,0-2.438,1.083-2.46,2.422H5.856c-0.273,0-0.494,0.221-0.494,0.494S5.583,4.813,5.856,4.813z M12,2.39   c0.799,0,1.448,0.64,1.47,1.434H10.53C10.552,3.03,11.201,2.39,12,2.39z"/><path d="M9.038,10.332c-0.273,0-0.494,0.221-0.494,0.494v7.386c0,0.273,0.221,0.494,0.494,0.494c0.273,0,0.494-0.221,0.494-0.494   v-7.386C9.533,10.553,9.311,10.332,9.038,10.332z"/><path d="M12,10.332c-0.273,0-0.494,0.221-0.494,0.494v7.386c0,0.273,0.221,0.494,0.494,0.494c0.273,0,0.494-0.221,0.494-0.494   v-7.386C12.495,10.553,12.273,10.332,12,10.332z"/><path d="M14.962,10.332c-0.273,0-0.494,0.221-0.494,0.494v7.386c0,0.273,0.221,0.494,0.494,0.494c0.273,0,0.494-0.221,0.494-0.494   v-7.386C15.456,10.553,15.235,10.332,14.962,10.332z"/></g><text x="0" y="39" fill="#000000" font-size="5px" font-weight="bold" font-family="'Helvetica Neue', Helvetica, Arial-Unicode, Arial, Sans-serif">Created by AlePio</text><text x="0" y="44" fill="#000000" font-size="5px" font-weight="bold" font-family="'Helvetica Neue', Helvetica, Arial-Unicode, Arial, Sans-serif">from the Noun Project</text></svg>